<svg width="28" height="28" viewBox="0 0 28 28" fill="none" xmlns="http://www.w3.org/2000/svg">
<mask id="mask0_202_91" style="mask-type:alpha" maskUnits="userSpaceOnUse" x="0" y="0" width="28" height="28">
<rect width="28" height="28" fill="#C4C4C4"/>
</mask>
<g mask="url(#mask0_202_91)">
<path d="M26.4599 8.83515L14.6707 2.47331C14.3242 2.28665 13.9077 2.28665 13.5624 2.47331L1.77907 8.83515C1.21207 9.14315 1.0009 9.85013 1.30657 10.4171C1.51657 10.808 1.91907 11.0296 2.33324 11.0296C2.5199 11.0296 2.71124 10.9853 2.8874 10.8896L3.74374 10.4276L5.59874 23.5526C5.85074 24.969 7.12707 25.9583 8.70207 25.9583H19.531C21.106 25.9583 22.3824 24.969 22.6367 23.5223L24.4894 10.4265L25.3492 10.8908C25.915 11.1976 26.6232 10.9865 26.9289 10.4195C27.2357 9.85247 27.0222 9.14431 26.4575 8.83864L26.4599 8.83515ZM14.1165 18.2676C12.0224 18.2676 10.3249 16.5701 10.3249 14.476C10.3249 12.3818 12.0224 10.6843 14.1165 10.6843C16.2107 10.6843 17.9082 12.3818 17.9082 14.476C17.9082 16.5701 16.2107 18.2676 14.1165 18.2676Z" fill="black"/>
</g>
</svg>
